<mxfile host="65bd71144e">
    <diagram id="TX7IGviLwUVxGqZB26IP" name="Page-1">
        <mxGraphModel dx="913" dy="557" grid="1" gridSize="10" guides="1" tooltips="1" connect="1" arrows="1" fold="1" page="1" pageScale="1" pageWidth="850" pageHeight="1100" math="0" shadow="0">
            <root>
                <mxCell id="0"/>
                <mxCell id="1" parent="0"/>
                <mxCell id="2" value="" style="swimlane;startSize=0;strokeColor=#336600;" vertex="1" parent="1">
                    <mxGeometry x="3200" y="1290" width="1460" height="1180" as="geometry"/>
                </mxCell>
                <mxCell id="3" value="&lt;span style=&quot;color: rgb(0, 0, 0); font-family: Helvetica; font-style: normal; font-variant-ligatures: normal; font-variant-caps: normal; font-weight: 400; letter-spacing: normal; orphans: 2; text-align: center; text-indent: 0px; text-transform: none; widows: 2; word-spacing: 0px; -webkit-text-stroke-width: 0px; white-space: normal; background-color: rgb(236, 236, 236); text-decoration-thickness: initial; text-decoration-style: initial; text-decoration-color: initial; float: none; display: inline !important;&quot;&gt;PaymentTransaction table contains ...&amp;nbsp; referenceFor &quot;&lt;span style=&quot;font-size: 16px; font-style: italic; text-wrap-mode: nowrap;&quot;&gt;Training Program Purchase&lt;/span&gt;&quot; and referenceId which is ID of that&amp;nbsp;&lt;/span&gt;&lt;span style=&quot;text-align: center;&quot;&gt;&quot;&lt;/span&gt;&lt;span style=&quot;text-align: center; text-wrap-mode: nowrap; font-size: 16px; font-style: italic;&quot;&gt;Training Program Purchase&lt;/span&gt;&lt;span style=&quot;text-align: center;&quot;&gt;&quot;&amp;nbsp; document&lt;br&gt;--------------------------------------------&lt;br&gt;&lt;/span&gt;&lt;span style=&quot;text-align: center;&quot;&gt;&quot;&lt;/span&gt;&lt;span style=&quot;text-wrap-mode: nowrap; text-align: center; font-size: 16px; font-style: italic;&quot;&gt;Training Program Purchase&lt;/span&gt;&lt;span style=&quot;text-align: center;&quot;&gt;&quot; document contains&amp;nbsp;&lt;br&gt;&quot;&lt;/span&gt;&lt;span style=&quot;font-size: 16px; text-wrap-mode: nowrap;&quot;&gt;specialistId&lt;/span&gt;&lt;span style=&quot;text-align: center;&quot;&gt;&quot; .. so we can add amount to&amp;nbsp;&lt;br&gt;specialist&#39;s wallet&lt;/span&gt;&lt;span style=&quot;text-align: center;&quot;&gt;&lt;/span&gt;" style="text;whiteSpace=wrap;html=1;fontSize=25;" vertex="1" parent="2">
                    <mxGeometry x="65" y="215" width="470" height="290" as="geometry"/>
                </mxCell>
                <mxCell id="4" value="" style="swimlane;startSize=0;verticalAlign=middle;" vertex="1" parent="2">
                    <mxGeometry x="595" y="65" width="450" height="370" as="geometry">
                        <mxRectangle x="-90" y="-20" width="50" height="40" as="alternateBounds"/>
                    </mxGeometry>
                </mxCell>
                <mxCell id="5" value="Wallet 1️⃣" style="text;html=1;align=center;verticalAlign=middle;resizable=0;points=[];autosize=1;strokeColor=none;fillColor=none;fontSize=35;" vertex="1" parent="4">
                    <mxGeometry x="20" y="20" width="180" height="60" as="geometry"/>
                </mxCell>
                <mxCell id="6" value="Wallet 🩹🌀 ok" style="swimlane;fontStyle=2;align=center;verticalAlign=top;childLayout=stackLayout;horizontal=1;startSize=26;horizontalStack=0;resizeParent=1;resizeLast=0;collapsible=1;marginBottom=0;rounded=0;shadow=0;strokeWidth=1;fillColor=#bac8d3;strokeColor=#23445d;" vertex="1" parent="4">
                    <mxGeometry x="30" y="90" width="390" height="218" as="geometry">
                        <mxRectangle x="350" y="1020" width="160" height="26" as="alternateBounds"/>
                    </mxGeometry>
                </mxCell>
                <mxCell id="7" value="" style="line;html=1;strokeWidth=1;align=left;verticalAlign=middle;spacingTop=-1;spacingLeft=3;spacingRight=3;rotatable=0;labelPosition=right;points=[];portConstraint=eastwest;" vertex="1" parent="6">
                    <mxGeometry y="26" width="390" height="8" as="geometry"/>
                </mxCell>
                <mxCell id="8" value="- wallet_id" style="text;align=left;verticalAlign=top;spacingLeft=4;spacingRight=4;overflow=hidden;rotatable=0;points=[[0,0.5],[1,0.5]];portConstraint=eastwest;" vertex="1" parent="6">
                    <mxGeometry y="34" width="390" height="26" as="geometry"/>
                </mxCell>
                <mxCell id="9" value="- user_id 🔖 FK  🏷️ unique" style="text;align=left;verticalAlign=top;spacingLeft=4;spacingRight=4;overflow=hidden;rotatable=0;points=[[0,0.5],[1,0.5]];portConstraint=eastwest;fillColor=#e1d5e7;strokeColor=#9673a6;" vertex="1" parent="6">
                    <mxGeometry y="60" width="390" height="26" as="geometry"/>
                </mxCell>
                <mxCell id="10" value="- amount ⚡ number" style="text;align=left;verticalAlign=top;spacingLeft=4;spacingRight=4;overflow=hidden;rotatable=0;points=[[0,0.5],[1,0.5]];portConstraint=eastwest;" vertex="1" parent="6">
                    <mxGeometry y="86" width="390" height="26" as="geometry"/>
                </mxCell>
                <mxCell id="11" value="- currency ⚡ [ usd / eur ]  🏷️" style="text;align=left;verticalAlign=top;spacingLeft=4;spacingRight=4;overflow=hidden;rotatable=0;points=[[0,0.5],[1,0.5]];portConstraint=eastwest;" vertex="1" parent="6">
                    <mxGeometry y="112" width="390" height="26" as="geometry"/>
                </mxCell>
                <mxCell id="12" value="- status⚡ [ active / frozen / suspended]  🏷️" style="text;align=left;verticalAlign=top;spacingLeft=4;spacingRight=4;overflow=hidden;rotatable=0;points=[[0,0.5],[1,0.5]];portConstraint=eastwest;" vertex="1" parent="6">
                    <mxGeometry y="138" width="390" height="26" as="geometry"/>
                </mxCell>
                <mxCell id="13" value="- userRole⚡ [ specialist / doctor  /  admin ]  🏷️" style="text;align=left;verticalAlign=top;spacingLeft=4;spacingRight=4;overflow=hidden;rotatable=0;points=[[0,0.5],[1,0.5]];portConstraint=eastwest;" vertex="1" parent="6">
                    <mxGeometry y="164" width="390" height="26" as="geometry"/>
                </mxCell>
                <mxCell id="14" value="- isDeleted" style="text;align=left;verticalAlign=top;spacingLeft=4;spacingRight=4;overflow=hidden;rotatable=0;points=[[0,0.5],[1,0.5]];portConstraint=eastwest;" vertex="1" parent="6">
                    <mxGeometry y="190" width="390" height="26" as="geometry"/>
                </mxCell>
                <mxCell id="15" value="" style="swimlane;startSize=0;verticalAlign=middle;" vertex="1" parent="2">
                    <mxGeometry x="45" y="485" width="490" height="570" as="geometry">
                        <mxRectangle x="-90" y="-20" width="50" height="40" as="alternateBounds"/>
                    </mxGeometry>
                </mxCell>
                <mxCell id="16" value="Wallet Transaction History 1️⃣" style="text;html=1;align=center;verticalAlign=middle;resizable=0;points=[];autosize=1;strokeColor=none;fillColor=none;fontSize=35;" vertex="1" parent="15">
                    <mxGeometry y="10" width="490" height="60" as="geometry"/>
                </mxCell>
                <mxCell id="17" value="Wallet Transaction History 🩹🌀 ok" style="swimlane;fontStyle=2;align=center;verticalAlign=top;childLayout=stackLayout;horizontal=1;startSize=26;horizontalStack=0;resizeParent=1;resizeLast=0;collapsible=1;marginBottom=0;rounded=0;shadow=0;strokeWidth=1;" vertex="1" parent="15">
                    <mxGeometry x="30" y="80" width="390" height="476" as="geometry">
                        <mxRectangle x="350" y="1020" width="160" height="26" as="alternateBounds"/>
                    </mxGeometry>
                </mxCell>
                <mxCell id="18" value="" style="line;html=1;strokeWidth=1;align=left;verticalAlign=middle;spacingTop=-1;spacingLeft=3;spacingRight=3;rotatable=0;labelPosition=right;points=[];portConstraint=eastwest;" vertex="1" parent="17">
                    <mxGeometry y="26" width="390" height="8" as="geometry"/>
                </mxCell>
                <mxCell id="19" value="- transaction_id" style="text;align=left;verticalAlign=top;spacingLeft=4;spacingRight=4;overflow=hidden;rotatable=0;points=[[0,0.5],[1,0.5]];portConstraint=eastwest;" vertex="1" parent="17">
                    <mxGeometry y="34" width="390" height="26" as="geometry"/>
                </mxCell>
                <mxCell id="20" value="- wallet_id 🔖 FK  " style="text;align=left;verticalAlign=top;spacingLeft=4;spacingRight=4;overflow=hidden;rotatable=0;points=[[0,0.5],[1,0.5]];portConstraint=eastwest;" vertex="1" parent="17">
                    <mxGeometry y="60" width="390" height="26" as="geometry"/>
                </mxCell>
                <mxCell id="21" value="- user_id 🔖 FK  " style="text;align=left;verticalAlign=top;spacingLeft=4;spacingRight=4;overflow=hidden;rotatable=0;points=[[0,0.5],[1,0.5]];portConstraint=eastwest;fillColor=#e1d5e7;strokeColor=#9673a6;" vertex="1" parent="17">
                    <mxGeometry y="86" width="390" height="26" as="geometry"/>
                </mxCell>
                <mxCell id="22" value="- paymentTransaction_id 🔖 FK  " style="text;align=left;verticalAlign=top;spacingLeft=4;spacingRight=4;overflow=hidden;rotatable=0;points=[[0,0.5],[1,0.5]];portConstraint=eastwest;" vertex="1" parent="17">
                    <mxGeometry y="112" width="390" height="26" as="geometry"/>
                </mxCell>
                <mxCell id="23" value="- withdrawalRequst_id 🔖 FK  " style="text;align=left;verticalAlign=top;spacingLeft=4;spacingRight=4;overflow=hidden;rotatable=0;points=[[0,0.5],[1,0.5]];portConstraint=eastwest;" vertex="1" parent="17">
                    <mxGeometry y="138" width="390" height="26" as="geometry"/>
                </mxCell>
                <mxCell id="24" value="- type⚡ string [ credit / debit / refund / withdrawal]" style="text;align=left;verticalAlign=top;spacingLeft=4;spacingRight=4;overflow=hidden;rotatable=0;points=[[0,0.5],[1,0.5]];portConstraint=eastwest;" vertex="1" parent="17">
                    <mxGeometry y="164" width="390" height="26" as="geometry"/>
                </mxCell>
                <mxCell id="25" value="- amount⚡ number" style="text;align=left;verticalAlign=top;spacingLeft=4;spacingRight=4;overflow=hidden;rotatable=0;points=[[0,0.5],[1,0.5]];portConstraint=eastwest;" vertex="1" parent="17">
                    <mxGeometry y="190" width="390" height="26" as="geometry"/>
                </mxCell>
                <mxCell id="26" value="- currency ⚡ [ usd / eur ]  🏷️" style="text;align=left;verticalAlign=top;spacingLeft=4;spacingRight=4;overflow=hidden;rotatable=0;points=[[0,0.5],[1,0.5]];portConstraint=eastwest;" vertex="1" parent="17">
                    <mxGeometry y="216" width="390" height="26" as="geometry"/>
                </mxCell>
                <mxCell id="27" value="- balanceBefore⚡ number" style="text;align=left;verticalAlign=top;spacingLeft=4;spacingRight=4;overflow=hidden;rotatable=0;points=[[0,0.5],[1,0.5]];portConstraint=eastwest;" vertex="1" parent="17">
                    <mxGeometry y="242" width="390" height="26" as="geometry"/>
                </mxCell>
                <mxCell id="28" value="- balanceAfter⚡ number" style="text;align=left;verticalAlign=top;spacingLeft=4;spacingRight=4;overflow=hidden;rotatable=0;points=[[0,0.5],[1,0.5]];portConstraint=eastwest;" vertex="1" parent="17">
                    <mxGeometry y="268" width="390" height="26" as="geometry"/>
                </mxCell>
                <mxCell id="29" value="- description⚡ string  🏷️" style="text;align=left;verticalAlign=top;spacingLeft=4;spacingRight=4;overflow=hidden;rotatable=0;points=[[0,0.5],[1,0.5]];portConstraint=eastwest;" vertex="1" parent="17">
                    <mxGeometry y="294" width="390" height="26" as="geometry"/>
                </mxCell>
                <mxCell id="30" value="- status⚡ [ completed / pending / failed ]  " style="text;align=left;verticalAlign=top;spacingLeft=4;spacingRight=4;overflow=hidden;rotatable=0;points=[[0,0.5],[1,0.5]];portConstraint=eastwest;" vertex="1" parent="17">
                    <mxGeometry y="320" width="390" height="26" as="geometry"/>
                </mxCell>
                <mxCell id="31" value="- referenceFor [ UserSubscription/ Order " style="text;align=left;verticalAlign=top;spacingLeft=4;spacingRight=4;overflow=hidden;rotatable=0;points=[[0,0.5],[1,0.5]];portConstraint=eastwest;fillColor=#f5f5f5;fontColor=#333333;strokeColor=#666666;" vertex="1" parent="17">
                    <mxGeometry y="346" width="390" height="26" as="geometry"/>
                </mxCell>
                <mxCell id="32" value="   / DoctorPatientScheduleBooking / SpecialistPatientScheduleBooking" style="text;align=left;verticalAlign=top;spacingLeft=4;spacingRight=4;overflow=hidden;rotatable=0;points=[[0,0.5],[1,0.5]];portConstraint=eastwest;fillColor=#f5f5f5;fontColor=#333333;strokeColor=#666666;" vertex="1" parent="17">
                    <mxGeometry y="372" width="390" height="26" as="geometry"/>
                </mxCell>
                <mxCell id="33" value="   / TrainingProgramPurchase / LabTestBooking  ]" style="text;align=left;verticalAlign=top;spacingLeft=4;spacingRight=4;overflow=hidden;rotatable=0;points=[[0,0.5],[1,0.5]];portConstraint=eastwest;fillColor=#f5f5f5;fontColor=#333333;strokeColor=#666666;" vertex="1" parent="17">
                    <mxGeometry y="398" width="390" height="26" as="geometry"/>
                </mxCell>
                <mxCell id="34" value="- referenceId  🔖 FK " style="text;align=left;verticalAlign=top;spacingLeft=4;spacingRight=4;overflow=hidden;rotatable=0;points=[[0,0.5],[1,0.5]];portConstraint=eastwest;fillColor=#f5f5f5;fontColor=#333333;strokeColor=#666666;" vertex="1" parent="17">
                    <mxGeometry y="424" width="390" height="26" as="geometry"/>
                </mxCell>
                <mxCell id="35" value="- isDeleted" style="text;align=left;verticalAlign=top;spacingLeft=4;spacingRight=4;overflow=hidden;rotatable=0;points=[[0,0.5],[1,0.5]];portConstraint=eastwest;" vertex="1" parent="17">
                    <mxGeometry y="450" width="390" height="26" as="geometry"/>
                </mxCell>
                <mxCell id="36" value="" style="swimlane;startSize=0;verticalAlign=middle;" vertex="1" parent="2">
                    <mxGeometry x="555" y="465" width="490" height="500" as="geometry">
                        <mxRectangle x="-90" y="-20" width="50" height="40" as="alternateBounds"/>
                    </mxGeometry>
                </mxCell>
                <mxCell id="37" value="Withdrawal Request 1️⃣" style="text;html=1;align=center;verticalAlign=middle;resizable=0;points=[];autosize=1;strokeColor=none;fillColor=none;fontSize=35;" vertex="1" parent="36">
                    <mxGeometry x="50" y="10" width="390" height="60" as="geometry"/>
                </mxCell>
                <mxCell id="38" value="Withdrawal Request 🩹🌀 ok" style="swimlane;fontStyle=2;align=center;verticalAlign=top;childLayout=stackLayout;horizontal=1;startSize=26;horizontalStack=0;resizeParent=1;resizeLast=0;collapsible=1;marginBottom=0;rounded=0;shadow=0;strokeWidth=1;" vertex="1" parent="36">
                    <mxGeometry x="30" y="80" width="390" height="398" as="geometry">
                        <mxRectangle x="350" y="1020" width="160" height="26" as="alternateBounds"/>
                    </mxGeometry>
                </mxCell>
                <mxCell id="39" value="" style="line;html=1;strokeWidth=1;align=left;verticalAlign=middle;spacingTop=-1;spacingLeft=3;spacingRight=3;rotatable=0;labelPosition=right;points=[];portConstraint=eastwest;" vertex="1" parent="38">
                    <mxGeometry y="26" width="390" height="8" as="geometry"/>
                </mxCell>
                <mxCell id="40" value="- withdrawalRequest_id" style="text;align=left;verticalAlign=top;spacingLeft=4;spacingRight=4;overflow=hidden;rotatable=0;points=[[0,0.5],[1,0.5]];portConstraint=eastwest;" vertex="1" parent="38">
                    <mxGeometry y="34" width="390" height="26" as="geometry"/>
                </mxCell>
                <mxCell id="41" value="- wallet_id 🔖 FK  " style="text;align=left;verticalAlign=top;spacingLeft=4;spacingRight=4;overflow=hidden;rotatable=0;points=[[0,0.5],[1,0.5]];portConstraint=eastwest;" vertex="1" parent="38">
                    <mxGeometry y="60" width="390" height="26" as="geometry"/>
                </mxCell>
                <mxCell id="42" value="- providerId   🔖 FK  " style="text;align=left;verticalAlign=top;spacingLeft=4;spacingRight=4;overflow=hidden;rotatable=0;points=[[0,0.5],[1,0.5]];portConstraint=eastwest;fillColor=#e1d5e7;strokeColor=#9673a6;" vertex="1" parent="38">
                    <mxGeometry y="86" width="390" height="26" as="geometry"/>
                </mxCell>
                <mxCell id="43" value="- isDeleted" style="text;align=left;verticalAlign=top;spacingLeft=4;spacingRight=4;overflow=hidden;rotatable=0;points=[[0,0.5],[1,0.5]];portConstraint=eastwest;" vertex="1" parent="38">
                    <mxGeometry y="112" width="390" height="26" as="geometry"/>
                </mxCell>
                <mxCell id="44" value="- status⚡ [ requested/  processing / completed / failed ]  " style="text;align=left;verticalAlign=top;spacingLeft=4;spacingRight=4;overflow=hidden;rotatable=0;points=[[0,0.5],[1,0.5]];portConstraint=eastwest;" vertex="1" parent="38">
                    <mxGeometry y="138" width="390" height="26" as="geometry"/>
                </mxCell>
                <mxCell id="45" value="- requestedAt⚡ Date  " style="text;align=left;verticalAlign=top;spacingLeft=4;spacingRight=4;overflow=hidden;rotatable=0;points=[[0,0.5],[1,0.5]];portConstraint=eastwest;" vertex="1" parent="38">
                    <mxGeometry y="164" width="390" height="26" as="geometry"/>
                </mxCell>
                <mxCell id="46" value="- requestedAmount⚡ Number" style="text;align=left;verticalAlign=top;spacingLeft=4;spacingRight=4;overflow=hidden;rotatable=0;points=[[0,0.5],[1,0.5]];portConstraint=eastwest;fillColor=#f5f5f5;fontColor=#333333;strokeColor=#666666;" vertex="1" parent="38">
                    <mxGeometry y="190" width="390" height="26" as="geometry"/>
                </mxCell>
                <mxCell id="47" value="- processedAt⚡ Date  " style="text;align=left;verticalAlign=top;spacingLeft=4;spacingRight=4;overflow=hidden;rotatable=0;points=[[0,0.5],[1,0.5]];portConstraint=eastwest;" vertex="1" parent="38">
                    <mxGeometry y="216" width="390" height="26" as="geometry"/>
                </mxCell>
                <mxCell id="48" value="- bankAccountNumber ⚡ number" style="text;align=left;verticalAlign=top;spacingLeft=4;spacingRight=4;overflow=hidden;rotatable=0;points=[[0,0.5],[1,0.5]];portConstraint=eastwest;fillColor=#d5e8d4;strokeColor=#82b366;" vertex="1" parent="38">
                    <mxGeometry y="242" width="390" height="26" as="geometry"/>
                </mxCell>
                <mxCell id="49" value="-bankAccountHolderName⚡ number" style="text;align=left;verticalAlign=top;spacingLeft=4;spacingRight=4;overflow=hidden;rotatable=0;points=[[0,0.5],[1,0.5]];portConstraint=eastwest;fillColor=#d5e8d4;strokeColor=#82b366;" vertex="1" parent="38">
                    <mxGeometry y="268" width="390" height="26" as="geometry"/>
                </mxCell>
                <mxCell id="50" value="- bankBranch⚡ number" style="text;align=left;verticalAlign=top;spacingLeft=4;spacingRight=4;overflow=hidden;rotatable=0;points=[[0,0.5],[1,0.5]];portConstraint=eastwest;fillColor=#d5e8d4;strokeColor=#82b366;" vertex="1" parent="38">
                    <mxGeometry y="294" width="390" height="26" as="geometry"/>
                </mxCell>
                <mxCell id="51" value="- bankRoutingNumber ⚡ number" style="text;align=left;verticalAlign=top;spacingLeft=4;spacingRight=4;overflow=hidden;rotatable=0;points=[[0,0.5],[1,0.5]];portConstraint=eastwest;fillColor=#d5e8d4;strokeColor=#82b366;" vertex="1" parent="38">
                    <mxGeometry y="320" width="390" height="26" as="geometry"/>
                </mxCell>
                <mxCell id="52" value="- bankName⚡ number" style="text;align=left;verticalAlign=top;spacingLeft=4;spacingRight=4;overflow=hidden;rotatable=0;points=[[0,0.5],[1,0.5]];portConstraint=eastwest;fillColor=#d5e8d4;strokeColor=#82b366;" vertex="1" parent="38">
                    <mxGeometry y="346" width="390" height="26" as="geometry"/>
                </mxCell>
                <mxCell id="53" value="- bankAccountType ⚡ [ Current  / savings]  " style="text;align=left;verticalAlign=top;spacingLeft=4;spacingRight=4;overflow=hidden;rotatable=0;points=[[0,0.5],[1,0.5]];portConstraint=eastwest;fillColor=#d5e8d4;strokeColor=#82b366;" vertex="1" parent="38">
                    <mxGeometry y="372" width="390" height="26" as="geometry"/>
                </mxCell>
                <mxCell id="54" style="edgeStyle=orthogonalEdgeStyle;rounded=0;orthogonalLoop=1;jettySize=auto;html=1;entryX=0.001;entryY=0.45;entryDx=0;entryDy=0;endArrow=ERmany;endFill=0;startArrow=ERone;startFill=0;entryPerimeter=0;fontSize=16;verticalAlign=middle;exitX=-0.005;exitY=0.528;exitDx=0;exitDy=0;exitPerimeter=0;" edge="1" parent="2" source="8" target="41">
                    <mxGeometry relative="1" as="geometry">
                        <mxPoint x="510.4200000000001" y="495" as="sourcePoint"/>
                        <mxPoint x="465" y="612.7399999999998" as="targetPoint"/>
                    </mxGeometry>
                </mxCell>
                <mxCell id="55" style="edgeStyle=orthogonalEdgeStyle;rounded=0;orthogonalLoop=1;jettySize=auto;html=1;entryX=0.259;entryY=-0.015;entryDx=0;entryDy=0;endArrow=ERmany;endFill=0;startArrow=ERone;startFill=0;entryPerimeter=0;fontSize=16;verticalAlign=middle;exitX=1.012;exitY=0.303;exitDx=0;exitDy=0;exitPerimeter=0;" edge="1" parent="2">
                    <mxGeometry relative="1" as="geometry">
                        <mxPoint x="1270.42" y="75.01000000000022" as="sourcePoint"/>
                        <mxPoint x="1225" y="192.75" as="targetPoint"/>
                    </mxGeometry>
                </mxCell>
                <mxCell id="56" style="edgeStyle=orthogonalEdgeStyle;rounded=0;orthogonalLoop=1;jettySize=auto;html=1;endArrow=ERmany;endFill=0;startArrow=ERone;startFill=0;fontSize=16;verticalAlign=middle;exitX=0.006;exitY=0.375;exitDx=0;exitDy=0;exitPerimeter=0;" edge="1" parent="2" source="8" target="20">
                    <mxGeometry relative="1" as="geometry">
                        <mxPoint x="1110.42" y="345" as="sourcePoint"/>
                        <mxPoint x="1065" y="462.7399999999998" as="targetPoint"/>
                        <Array as="points">
                            <mxPoint x="627" y="185"/>
                            <mxPoint x="545" y="185"/>
                            <mxPoint x="545" y="638"/>
                        </Array>
                    </mxGeometry>
                </mxCell>
                <mxCell id="57" value="" style="swimlane;startSize=0;verticalAlign=middle;" vertex="1" parent="2">
                    <mxGeometry x="1075" y="255" width="340" height="390" as="geometry">
                        <mxRectangle x="-90" y="-20" width="50" height="40" as="alternateBounds"/>
                    </mxGeometry>
                </mxCell>
                <mxCell id="58" value="&amp;nbsp; BankInfo 1️⃣" style="text;html=1;align=center;verticalAlign=middle;resizable=0;points=[];autosize=1;strokeColor=none;fillColor=none;fontSize=35;" vertex="1" parent="57">
                    <mxGeometry x="-10" y="10" width="240" height="60" as="geometry"/>
                </mxCell>
                <mxCell id="59" value="BankInfo 🩹🌀 ok" style="swimlane;fontStyle=2;align=center;verticalAlign=top;childLayout=stackLayout;horizontal=1;startSize=26;horizontalStack=0;resizeParent=1;resizeLast=0;collapsible=1;marginBottom=0;rounded=0;shadow=0;strokeWidth=1;fillColor=#bac8d3;strokeColor=#23445d;" vertex="1" parent="57">
                    <mxGeometry x="30" y="80" width="280" height="294" as="geometry">
                        <mxRectangle x="350" y="1020" width="160" height="26" as="alternateBounds"/>
                    </mxGeometry>
                </mxCell>
                <mxCell id="60" value="" style="line;html=1;strokeWidth=1;align=left;verticalAlign=middle;spacingTop=-1;spacingLeft=3;spacingRight=3;rotatable=0;labelPosition=right;points=[];portConstraint=eastwest;" vertex="1" parent="59">
                    <mxGeometry y="26" width="280" height="8" as="geometry"/>
                </mxCell>
                <mxCell id="61" value="- bankInfoId" style="text;align=left;verticalAlign=top;spacingLeft=4;spacingRight=4;overflow=hidden;rotatable=0;points=[[0,0.5],[1,0.5]];portConstraint=eastwest;" vertex="1" parent="59">
                    <mxGeometry y="34" width="280" height="26" as="geometry"/>
                </mxCell>
                <mxCell id="62" value="- userId 🔖 FK  🏷️ unique" style="text;align=left;verticalAlign=top;spacingLeft=4;spacingRight=4;overflow=hidden;rotatable=0;points=[[0,0.5],[1,0.5]];portConstraint=eastwest;fillColor=#e1d5e7;strokeColor=#9673a6;" vertex="1" parent="59">
                    <mxGeometry y="60" width="280" height="26" as="geometry"/>
                </mxCell>
                <mxCell id="63" value="- bankAccountNumber ⚡ number" style="text;align=left;verticalAlign=top;spacingLeft=4;spacingRight=4;overflow=hidden;rotatable=0;points=[[0,0.5],[1,0.5]];portConstraint=eastwest;" vertex="1" parent="59">
                    <mxGeometry y="86" width="280" height="26" as="geometry"/>
                </mxCell>
                <mxCell id="64" value="- bankAccountHolderName⚡ string" style="text;align=left;verticalAlign=top;spacingLeft=4;spacingRight=4;overflow=hidden;rotatable=0;points=[[0,0.5],[1,0.5]];portConstraint=eastwest;" vertex="1" parent="59">
                    <mxGeometry y="112" width="280" height="26" as="geometry"/>
                </mxCell>
                <mxCell id="65" value="- bankBranch⚡ string" style="text;align=left;verticalAlign=top;spacingLeft=4;spacingRight=4;overflow=hidden;rotatable=0;points=[[0,0.5],[1,0.5]];portConstraint=eastwest;" vertex="1" parent="59">
                    <mxGeometry y="138" width="280" height="26" as="geometry"/>
                </mxCell>
                <mxCell id="66" value="- bankRoutingNumber ⚡ number" style="text;align=left;verticalAlign=top;spacingLeft=4;spacingRight=4;overflow=hidden;rotatable=0;points=[[0,0.5],[1,0.5]];portConstraint=eastwest;" vertex="1" parent="59">
                    <mxGeometry y="164" width="280" height="26" as="geometry"/>
                </mxCell>
                <mxCell id="67" value="- bankName⚡ number" style="text;align=left;verticalAlign=top;spacingLeft=4;spacingRight=4;overflow=hidden;rotatable=0;points=[[0,0.5],[1,0.5]];portConstraint=eastwest;" vertex="1" parent="59">
                    <mxGeometry y="190" width="280" height="26" as="geometry"/>
                </mxCell>
                <mxCell id="68" value="- bankAccountType ⚡ [ Current  / savings]  " style="text;align=left;verticalAlign=top;spacingLeft=4;spacingRight=4;overflow=hidden;rotatable=0;points=[[0,0.5],[1,0.5]];portConstraint=eastwest;" vertex="1" parent="59">
                    <mxGeometry y="216" width="280" height="26" as="geometry"/>
                </mxCell>
                <mxCell id="69" value="- isActive ⚡ boolean  " style="text;align=left;verticalAlign=top;spacingLeft=4;spacingRight=4;overflow=hidden;rotatable=0;points=[[0,0.5],[1,0.5]];portConstraint=eastwest;fillColor=#f5f5f5;fontColor=#333333;strokeColor=#666666;" vertex="1" parent="59">
                    <mxGeometry y="242" width="280" height="26" as="geometry"/>
                </mxCell>
                <mxCell id="70" value="- isDeleted" style="text;align=left;verticalAlign=top;spacingLeft=4;spacingRight=4;overflow=hidden;rotatable=0;points=[[0,0.5],[1,0.5]];portConstraint=eastwest;" vertex="1" parent="59">
                    <mxGeometry y="268" width="280" height="26" as="geometry"/>
                </mxCell>
                <mxCell id="71" value="Wallet Module 1️⃣" style="text;html=1;align=center;verticalAlign=middle;resizable=0;points=[];autosize=1;strokeColor=none;fillColor=none;fontSize=35;" vertex="1" parent="2">
                    <mxGeometry x="55" y="75" width="300" height="60" as="geometry"/>
                </mxCell>
                <mxCell id="72" value="&lt;div&gt;04 -&amp;gt; 04 .. what is total balance and&amp;nbsp;&lt;/div&gt;&lt;div&gt;total withdrawal balance&lt;/div&gt;" style="shape=card;whiteSpace=wrap;html=1;fillColor=#ffe6cc;strokeColor=#d79b00;" vertex="1" parent="2">
                    <mxGeometry x="1120" y="680" width="280" height="140" as="geometry"/>
                </mxCell>
            </root>
        </mxGraphModel>
    </diagram>
</mxfile>